<svg width="0" height="0">

  <symbol id="github" width="24" height="24" viewBox="0 0 24 24" fill="none"
    xmlns="http://www.w3.org/2000/svg">
    <g>
      <path d="M15 21V17.5C15 16.5 15.1 16.1 14.5 15.5C17.3 15.2 20 14.1 20 9.50001C19.9988 8.30498 19.5325 7.15732 18.7 6.30001C19.0905 5.26198 19.0545 4.11164 18.6 3.10001C18.6 3.10001 17.5 2.80001 15.1 4.40001C13.0672 3.8706 10.9328 3.8706 8.9 4.40001C6.5 2.80001 5.4 3.10001 5.4 3.10001C4.94548 4.11164 4.90953 5.26198 5.3 6.30001C4.46745 7.15732 4.00122 8.30498 4 9.50001C4 14.1 6.7 15.2 9.5 15.5C8.9 16.1 8.9 16.7 9 17.5V21M9 19C4.7 20.4 4.7 16.5 3 16L9 19Z" stroke="#4B4B4B" stroke-width="1.25" stroke-linecap="round" stroke-linejoin="round"/>
    </g>
  </symbol>


  <symbol xmlns="http://www.w3.org/2000/svg" viewBox="0 0 16 16" id="like">
    <path d="M5.33333 6.66666H2.66667V13.3333H5.33333M5.33333 6.66666V13.3333M5.33333 6.66666L8.79705 2.62566C9.12572 2.24221 9.64282 2.07737 10.1328 2.19986L10.1645 2.20779C11.059 2.43141 11.462 3.47372 10.9505 4.24091L9.33333 6.66666H12.3736C13.215 6.66666 13.846 7.43643 13.681 8.26149L12.881 12.2615C12.7564 12.8847 12.2092 13.3333 11.5736 13.3333H5.33333" stroke="currentColor" stroke-linecap="round" stroke-linejoin="round" fill="none"></path>
  </symbol>

  <symbol id="arrow" width="20" height="20" viewBox="0 0 20 20" fill="none"
    xmlns="http://www.w3.org/2000/svg">
    <g>
      <path d="M4.16667 10H15.8333" stroke="currentColor" stroke-width="1.25" stroke-linecap="round" stroke-linejoin="round"/>
      <path d="M12.5 13.3333L15.8333 10" stroke="currentColor" stroke-width="1.25" stroke-linecap="round" stroke-linejoin="round"/>
      <path d="M12.5 6.66667L15.8333 10" stroke="currentColor" stroke-width="1.25" stroke-linecap="round" stroke-linejoin="round"/>
    </g>
  </symbol>

</svg>